<svg xmlns="http://www.w3.org/2000/svg" viewBox="0 0 128 128"><path d="M104 126H24c-5.5 0-10-4.5-10-10V12c0-5.5 4.5-10 10-10h54.7c2.7 0 5.2 1 7.1 2.9l25.3 25.3c1.9 1.9 2.9 4.4 2.9 7.1V116c0 5.5-4.5 10-10 10z" fill="#fff"/><path d="M101.72 84.435V73.457c0-1.647-1.244-2.745-3.111-2.745h-3.112v38.425h3.112c1.867 0 3.112-1.097 3.112-2.745V95.414c1.867 0 3.112-.707 3.112-2.353v-6.273c0-1.647-1.245-2.353-3.112-2.353zM34.838 73.457v10.978c-1.868 0-3.112.706-3.112 2.354v6.272c0 1.646 1.244 2.354 3.112 2.354v10.977c0 1.648 1.245 2.745 3.112 2.745h3.113V70.712H37.95c-1.867 0-3.112 1.098-3.112 2.745zm58.34-8.234v49.403c0 1.647-1.245 2.745-3.113 2.745h-3.112c-1.867 0-3.112-1.098-3.112-2.745V96.038H52.717v18.588c0 1.647-1.244 2.745-3.112 2.745h-3.112c-1.867 0-3.112-1.098-3.112-2.745V65.223c0-1.647 1.245-2.744 3.112-2.744h3.112c1.868 0 3.112 1.097 3.112 2.744v18.589H83.84v-18.59c0-1.646 1.245-2.743 3.112-2.743h3.112c1.868 0 3.112 1.097 3.112 2.744z" fill="#77529e"/></svg>